<mxfile host="app.diagrams.net" modified="2021-11-08T16:41:03.173Z" agent="5.0 (Macintosh; Intel Mac OS X 10_15_7) AppleWebKit/537.36 (KHTML, like Gecko) Chrome/95.0.4638.69 Safari/537.36" etag="UoGoLscFxh2O3Xez7NIu" version="15.7.0" type="github">
  <diagram id="V51sYZmwM-TRDQ3rJPVA" name="Page-1">
    <mxGraphModel dx="1485" dy="949" grid="1" gridSize="10" guides="1" tooltips="1" connect="1" arrows="1" fold="1" page="1" pageScale="1" pageWidth="827" pageHeight="1169" math="0" shadow="0">
      <root>
        <mxCell id="0" />
        <mxCell id="1" parent="0" />
        <mxCell id="XsPQehy-5ivBseYOah9C-1" value="Version Control&lt;br&gt;Deployment Automation&lt;br&gt;Continuous Integration&lt;br&gt;Trunk-Based Development&lt;br&gt;Test Automation&lt;br&gt;Test Data Management&lt;br&gt;Shift Left on Security&lt;br&gt;Loosely Coupled Architecture&lt;br&gt;Empowered Teams&lt;br&gt;Monitoring&lt;br&gt;Proactive Notifications" style="rounded=1;whiteSpace=wrap;html=1;align=left;" vertex="1" parent="1">
          <mxGeometry x="100" y="210" width="170" height="190" as="geometry" />
        </mxCell>
        <mxCell id="XsPQehy-5ivBseYOah9C-2" value="Continuous Delivery" style="rounded=1;whiteSpace=wrap;html=1;align=center;" vertex="1" parent="1">
          <mxGeometry x="380" y="275" width="120" height="60" as="geometry" />
        </mxCell>
        <mxCell id="XsPQehy-5ivBseYOah9C-3" value="" style="endArrow=classic;html=1;rounded=0;exitX=1;exitY=0.5;exitDx=0;exitDy=0;entryX=0;entryY=0.5;entryDx=0;entryDy=0;" edge="1" parent="1" source="XsPQehy-5ivBseYOah9C-1" target="XsPQehy-5ivBseYOah9C-2">
          <mxGeometry width="50" height="50" relative="1" as="geometry">
            <mxPoint x="390" y="440" as="sourcePoint" />
            <mxPoint x="440" y="390" as="targetPoint" />
          </mxGeometry>
        </mxCell>
        <mxCell id="XsPQehy-5ivBseYOah9C-4" value="Lean Management" style="rounded=1;whiteSpace=wrap;html=1;align=center;" vertex="1" parent="1">
          <mxGeometry x="90" y="530" width="120" height="60" as="geometry" />
        </mxCell>
        <mxCell id="XsPQehy-5ivBseYOah9C-5" value="Westrum Organizational Culture" style="rounded=1;whiteSpace=wrap;html=1;align=center;" vertex="1" parent="1">
          <mxGeometry x="260" y="450" width="120" height="60" as="geometry" />
        </mxCell>
        <mxCell id="XsPQehy-5ivBseYOah9C-6" value="Software Delivery Perfomance" style="rounded=1;whiteSpace=wrap;html=1;align=center;" vertex="1" parent="1">
          <mxGeometry x="260" y="530" width="120" height="60" as="geometry" />
        </mxCell>
        <mxCell id="XsPQehy-5ivBseYOah9C-7" value="Less Burnout" style="rounded=1;whiteSpace=wrap;html=1;align=center;" vertex="1" parent="1">
          <mxGeometry x="260" y="610" width="120" height="60" as="geometry" />
        </mxCell>
        <mxCell id="XsPQehy-5ivBseYOah9C-8" value="" style="endArrow=classic;html=1;rounded=0;exitX=1;exitY=0.5;exitDx=0;exitDy=0;entryX=-0.017;entryY=0.633;entryDx=0;entryDy=0;entryPerimeter=0;" edge="1" parent="1" source="XsPQehy-5ivBseYOah9C-4" target="XsPQehy-5ivBseYOah9C-5">
          <mxGeometry width="50" height="50" relative="1" as="geometry">
            <mxPoint x="390" y="450" as="sourcePoint" />
            <mxPoint x="440" y="400" as="targetPoint" />
          </mxGeometry>
        </mxCell>
        <mxCell id="XsPQehy-5ivBseYOah9C-9" value="" style="endArrow=classic;html=1;rounded=0;exitX=1;exitY=0.5;exitDx=0;exitDy=0;entryX=0;entryY=0.5;entryDx=0;entryDy=0;" edge="1" parent="1" source="XsPQehy-5ivBseYOah9C-4" target="XsPQehy-5ivBseYOah9C-6">
          <mxGeometry width="50" height="50" relative="1" as="geometry">
            <mxPoint x="390" y="450" as="sourcePoint" />
            <mxPoint x="440" y="400" as="targetPoint" />
          </mxGeometry>
        </mxCell>
        <mxCell id="XsPQehy-5ivBseYOah9C-10" value="" style="endArrow=classic;html=1;rounded=0;exitX=1;exitY=0.5;exitDx=0;exitDy=0;entryX=0;entryY=0.5;entryDx=0;entryDy=0;" edge="1" parent="1" source="XsPQehy-5ivBseYOah9C-4" target="XsPQehy-5ivBseYOah9C-7">
          <mxGeometry width="50" height="50" relative="1" as="geometry">
            <mxPoint x="390" y="450" as="sourcePoint" />
            <mxPoint x="440" y="400" as="targetPoint" />
          </mxGeometry>
        </mxCell>
        <mxCell id="XsPQehy-5ivBseYOah9C-11" value="Lean Practices" style="rounded=1;whiteSpace=wrap;html=1;align=center;" vertex="1" parent="1">
          <mxGeometry x="450" y="610" width="120" height="60" as="geometry" />
        </mxCell>
        <mxCell id="XsPQehy-5ivBseYOah9C-12" value="Continuous Delivery" style="rounded=1;whiteSpace=wrap;html=1;align=center;" vertex="1" parent="1">
          <mxGeometry x="450" y="490" width="120" height="60" as="geometry" />
        </mxCell>
        <mxCell id="XsPQehy-5ivBseYOah9C-13" value="Less Deployment Pain" style="rounded=1;whiteSpace=wrap;html=1;align=center;" vertex="1" parent="1">
          <mxGeometry x="650" y="490" width="120" height="60" as="geometry" />
        </mxCell>
        <mxCell id="XsPQehy-5ivBseYOah9C-14" value="Less Burnout" style="rounded=1;whiteSpace=wrap;html=1;align=center;" vertex="1" parent="1">
          <mxGeometry x="650" y="610" width="120" height="60" as="geometry" />
        </mxCell>
        <mxCell id="XsPQehy-5ivBseYOah9C-15" value="" style="endArrow=classic;html=1;rounded=0;exitX=1;exitY=0.5;exitDx=0;exitDy=0;entryX=0;entryY=0.5;entryDx=0;entryDy=0;" edge="1" parent="1" source="XsPQehy-5ivBseYOah9C-12" target="XsPQehy-5ivBseYOah9C-13">
          <mxGeometry width="50" height="50" relative="1" as="geometry">
            <mxPoint x="390" y="410" as="sourcePoint" />
            <mxPoint x="440" y="360" as="targetPoint" />
          </mxGeometry>
        </mxCell>
        <mxCell id="XsPQehy-5ivBseYOah9C-16" value="" style="endArrow=classic;html=1;rounded=0;exitX=1;exitY=0.75;exitDx=0;exitDy=0;entryX=0;entryY=0.25;entryDx=0;entryDy=0;" edge="1" parent="1" source="XsPQehy-5ivBseYOah9C-12" target="XsPQehy-5ivBseYOah9C-14">
          <mxGeometry width="50" height="50" relative="1" as="geometry">
            <mxPoint x="390" y="410" as="sourcePoint" />
            <mxPoint x="440" y="360" as="targetPoint" />
          </mxGeometry>
        </mxCell>
        <mxCell id="XsPQehy-5ivBseYOah9C-17" value="" style="endArrow=classic;html=1;rounded=0;exitX=1;exitY=0.5;exitDx=0;exitDy=0;entryX=0;entryY=0.5;entryDx=0;entryDy=0;" edge="1" parent="1" source="XsPQehy-5ivBseYOah9C-11" target="XsPQehy-5ivBseYOah9C-14">
          <mxGeometry width="50" height="50" relative="1" as="geometry">
            <mxPoint x="390" y="410" as="sourcePoint" />
            <mxPoint x="440" y="360" as="targetPoint" />
          </mxGeometry>
        </mxCell>
        <mxCell id="XsPQehy-5ivBseYOah9C-18" value="Continuous Delivery" style="rounded=1;whiteSpace=wrap;html=1;align=center;" vertex="1" parent="1">
          <mxGeometry x="90" y="780" width="120" height="60" as="geometry" />
        </mxCell>
        <mxCell id="XsPQehy-5ivBseYOah9C-19" value="Lean Practices" style="rounded=1;whiteSpace=wrap;html=1;align=center;" vertex="1" parent="1">
          <mxGeometry x="90" y="920" width="120" height="60" as="geometry" />
        </mxCell>
        <mxCell id="XsPQehy-5ivBseYOah9C-26" style="edgeStyle=orthogonalEdgeStyle;rounded=0;orthogonalLoop=1;jettySize=auto;html=1;exitX=1;exitY=0.5;exitDx=0;exitDy=0;" edge="1" parent="1" source="XsPQehy-5ivBseYOah9C-20" target="XsPQehy-5ivBseYOah9C-21">
          <mxGeometry relative="1" as="geometry" />
        </mxCell>
        <mxCell id="XsPQehy-5ivBseYOah9C-20" value="Identity" style="rounded=1;whiteSpace=wrap;html=1;align=center;" vertex="1" parent="1">
          <mxGeometry x="260" y="850" width="120" height="60" as="geometry" />
        </mxCell>
        <mxCell id="XsPQehy-5ivBseYOah9C-21" value="Organizational Performance" style="rounded=1;whiteSpace=wrap;html=1;align=center;" vertex="1" parent="1">
          <mxGeometry x="440" y="850" width="120" height="60" as="geometry" />
        </mxCell>
        <mxCell id="XsPQehy-5ivBseYOah9C-22" value="" style="endArrow=classic;html=1;rounded=0;exitX=1;exitY=0.5;exitDx=0;exitDy=0;entryX=0;entryY=0.75;entryDx=0;entryDy=0;" edge="1" parent="1" source="XsPQehy-5ivBseYOah9C-19" target="XsPQehy-5ivBseYOah9C-20">
          <mxGeometry width="50" height="50" relative="1" as="geometry">
            <mxPoint x="390" y="660" as="sourcePoint" />
            <mxPoint x="440" y="610" as="targetPoint" />
          </mxGeometry>
        </mxCell>
        <mxCell id="XsPQehy-5ivBseYOah9C-24" value="" style="endArrow=classic;html=1;rounded=0;exitX=1;exitY=0.5;exitDx=0;exitDy=0;entryX=0;entryY=0.25;entryDx=0;entryDy=0;" edge="1" parent="1" source="XsPQehy-5ivBseYOah9C-18" target="XsPQehy-5ivBseYOah9C-20">
          <mxGeometry width="50" height="50" relative="1" as="geometry">
            <mxPoint x="390" y="660" as="sourcePoint" />
            <mxPoint x="440" y="610" as="targetPoint" />
          </mxGeometry>
        </mxCell>
      </root>
    </mxGraphModel>
  </diagram>
</mxfile>
